<?xml version="1.0" encoding="utf-8"?>
<svg xmlns="http://www.w3.org/2000/svg" viewBox="0 0 500 500">
  <defs>
    <radialGradient gradientUnits="userSpaceOnUse" cx="5645.617" cy="4897.106" r="194.383" id="gradient-0">
      <stop offset="0" style="stop-color: rgb(59.216% 32.157% 72.549%)"/>
      <stop offset="1" style="stop-color: rgb(39.437% 13.45% 52.738%)"/>
    </radialGradient>
    <linearGradient gradientUnits="userSpaceOnUse" x1="5540.205" y1="5295" x2="5540.205" y2="5973.456" id="gradient-1">
      <stop offset="0" style="stop-color: rgb(77.647% 23.529% 93.333%)"/>
      <stop offset="1" style="stop-color: rgb(52.719% 0% 68.498%)"/>
    </linearGradient>
    <linearGradient gradientUnits="userSpaceOnUse" x1="5751.246" y1="3860" x2="5751.246" y2="4508" id="gradient-2">
      <stop offset="0" style="stop-color: rgb(77.647% 23.529% 93.333%)"/>
      <stop offset="1" style="stop-color: rgb(52.719% 0% 68.498%)"/>
    </linearGradient>
    <linearGradient gradientUnits="userSpaceOnUse" x1="4668.1" y1="4880.861" x2="4668.1" y2="5990" id="gradient-3">
      <stop offset="0" style="stop-color: rgb(77.647% 23.529% 93.333%)"/>
      <stop offset="1" style="stop-color: rgb(52.719% 0% 68.498%)"/>
    </linearGradient>
    <linearGradient gradientUnits="userSpaceOnUse" x1="4229.006" y1="4879" x2="4229.006" y2="5990" id="gradient-4">
      <stop offset="0" style="stop-color: rgb(77.647% 23.529% 93.333%)"/>
      <stop offset="1" style="stop-color: rgb(52.719% 0% 68.498%)"/>
    </linearGradient>
  </defs>
  <g id="svg" fill="black" stroke="none" stroke-linecap="round" transform="matrix(0.113633, 0, 0, 0.117485, -329.758881, -309.794922)" style="">
    <path d="M4831 4155c-1 0 -1 0 -1 0 -5 3 -147 5 -315 5 -136 0 -256 -2 -301 -5 -11 -1 -18 -2 -19 -2 -8 -5 -27 -81 -50 -198 -20 -104 -41 -205 -46 -223 l-11 -32 -456 2 -457 3 0 40 0 40 423 3 c232 1 422 4 422 6 0 2 16 81 35 176 20 95 34 174 32 176 -2 2 -98 4 -214 4 -27 0 -51 0 -72 0 l-29 11 c-15 3 -36 2 -45 -3 l-13 -6 c-48 2 -62 6 -73 16 l-20 17 154 933 c113 678 160 943 175 972 11 21 28 43 37 49 15 8 14 10 -10 15 -15 3 -70 8 -123 11 -52 3 -118 10 -145 16 -30 7 -49 16 -49 24 0 8 16 19 35 25 19 5 124 18 233 28 171 15 324 17 1147 17 810 0 984 -3 1183 -17 140 -11 248 -24 272 -33 22 -8 40 -17 40 -20 0 -3 -20 -12 -45 -20 -26 -9 -127 -20 -242 -27 l-198 -13 37 -55 38 -55 130 -846 c104 -681 130 -867 130 -951 0 -72 -6 -129 -20 -184 -11 -43 -39 -111 -61 -151 -29 -50 -71 -100 -139 -166 -76 -73 -100 -103 -105 -129 -4 -20 7 -126 24 -254 17 -120 34 -229 36 -241 4 -17 13 -22 43 -25 29 -2 39 -9 47 -28 8 -21 6 -28 -13 -42 -12 -9 -30 -18 -39 -20 -15 -3 -15 -10 0 -98 14 -88 14 -96 -1 -110 -12 -10 -89 -24 -246 -43 -187 -23 -232 -25 -242 -15 -6 7 -17 54 -23 105 l-11 92 -38 3 c-29 2 -39 9 -47 28 -8 21 -6 28 14 43 13 9 32 17 42 17 16 0 19 8 19 48 0 26 -18 141 -39 256 -31 170 -43 215 -63 240 -15 20 -57 46 -116 73 -68 31 -105 55 -147 97 -30 30 -77 92 -103 138 -26 46 -63 126 -81 178 l-35 95 -119 3 c-61 1 -115 4 -126 7 z" fill="rgb(2, 2, 2)"/>
    <path d="M5772 2880c-7 49 -6 63 4 66 8 2 79 11 159 21 80 9 147 14 150 11 3 -2 8 -31 11 -64 l6 -59 -160 -19 -160 -18 -10 62 z" fill="rgb(231, 231, 231)"/>
    <path d="M4757 2882c-10 19 -9 26 5 42 12 13 24 17 43 12 22 -6 26 -11 23 -39 -2 -27 -8 -33 -31 -35 -21 -3 -31 2 -40 20 z" fill="rgb(2, 2, 2)"/>
    <path d="M5721 3279c-23 135 -50 264 -60 286 -10 22 -33 55 -51 73 -18 18 -76 54 -129 80 -83 41 -105 56 -151 111 -36 44 -70 102 -106 184 -30 66 -54 124 -54 129 0 4 17 7 38 6 36 -3 38 -5 74 -84 26 -57 55 -101 98 -148 42 -45 84 -77 131 -101 47 -24 93 -38 142 -45 47 -6 97 -6 144 1 45 6 105 25 157 48 56 25 102 55 140 91 30 29 69 73 85 99 17 26 39 77 51 115 12 41 20 96 20 139 0 42 -53 415 -125 886 -69 448 -130 821 -135 831 -5 9 -36 31 -68 48 -47 25 -72 32 -117 32 -32 0 -196 -20 -366 -45 -170 -25 -322 -47 -338 -50 -26 -6 -29 -3 -38 34 l-10 39 58 11 c33 6 200 30 372 53 292 39 319 41 383 29 39 -6 88 -22 110 -35 23 -13 53 -38 68 -57 26 -33 32 -66 141 -774 63 -407 122 -807 132 -890 15 -127 16 -162 6 -232 -7 -45 -25 -113 -40 -150 -23 -57 -47 -88 -143 -188 -68 -71 -119 -134 -126 -155 -7 -19 -13 -55 -13 -80 0 -25 15 -144 33 -265 18 -121 29 -223 24 -227 -4 -5 -73 -16 -152 -27 l-144 -18 -41 246 z" fill="rgb(231, 231, 231)"/>
    <path d="M4339 3185c-11 30 -28 63 -37 72 -9 9 -43 27 -76 40 -33 12 -56 26 -52 30 4 4 33 19 64 33 48 21 61 33 84 75 15 28 33 61 40 75 14 25 14 25 32 -27 9 -29 27 -64 39 -79 11 -15 47 -37 80 -50 32 -13 56 -27 53 -32 -3 -5 -28 -17 -55 -26 -29 -9 -60 -28 -75 -47 -14 -17 -31 -51 -37 -75 -7 -26 -17 -44 -25 -44 -8 0 -23 24 -35 55 z" fill="rgb(2, 2, 2)"/>
    <path d="M3596 3237c-20 34 -38 52 -71 67 -25 12 -45 26 -45 32 0 5 22 19 48 30 40 17 53 29 71 67 13 26 27 45 31 42 5 -3 19 -25 33 -49 17 -31 36 -49 66 -62 22 -10 41 -23 41 -29 0 -7 -19 -19 -41 -28 -34 -13 -46 -26 -66 -67 -13 -27 -28 -50 -33 -50 -4 0 -20 21 -34 47 z" fill="rgb(2, 2, 2)"/>
    <path d="M6620 3242c-28 22 -32 31 -28 59 3 22 15 40 32 51 14 10 32 18 40 18 7 0 25 -10 40 -21 22 -17 27 -28 24 -58 -2 -30 -9 -39 -39 -56 l-36 -19 -33 26 z" fill="rgb(2, 2, 2)"/>
    <path d="M4357 3257c-5 12 -19 31 -33 42 -13 10 -24 21 -24 23 0 3 17 22 38 44 l37 39 35 -40 35 -40 -27 -23 c-14 -12 -32 -32 -40 -45 l-13 -22 -8 22 z" fill="rgb(231, 231, 231)"/>
    <path d="M6651 3280c-8 4 -11 15 -8 24 4 9 13 16 22 16 8 0 15 -9 15 -19 0 -11 -4 -22 -8 -25 -4 -2 -14 -1 -21 4 z" fill="rgb(212, 219, 222)"/>
    <path d="M5001 3500c-8 14 -24 31 -37 38 -13 7 -24 22 -24 33 0 11 10 23 24 29 13 5 27 18 31 29 3 12 15 21 25 21 10 0 22 -9 25 -21 4 -11 18 -25 31 -31 13 -6 24 -18 23 -27 0 -9 -19 -34 -43 -56 l-42 -40 -13 25 z" fill="rgb(2, 2, 2)"/>
    <path d="M6871 3783c-13 33 -39 74 -58 93 -20 21 -54 40 -88 51 -30 9 -55 22 -55 28 0 6 33 24 73 40 67 28 74 34 102 85 17 30 35 66 41 80 10 21 13 23 21 10 6 -8 25 -42 44 -75 29 -51 44 -65 102 -97 37 -21 67 -40 67 -43 0 -3 -30 -20 -67 -37 -62 -30 -71 -38 -99 -93 -17 -33 -38 -69 -45 -80 -13 -19 -16 -16 -38 38 z" fill="rgb(2, 2, 2)"/>
    <path d="M6020 4486l0 -16 c0 -8 -9 -21 -19 -27 -19 -12 -18 -14 17 -44 25 -22 38 -27 41 -18 2 7 14 22 27 34 l23 20 -27 25 -28 30 c13 3 29 6 40 9 l34 9 22 -115 c15 -81 20 -130 15 -166 -4 -29 -16 -76 -27 -106 -11 -30 -38 -76 -60 -104 -22 -28 -70 -69 -109 -93 -38 -23 -93 -48 -122 -54 -29 -7 -61 -11 -72 -9 -16 4 -9 19 49 122 37 65 66 121 63 123 -3 3 -35 -23 -71 -57 -37 -34 -85 -90 -108 -125 -34 -54 -45 -64 -69 -64 -16 0 -56 13 -88 29 -33 16 -78 49 -101 73 -24 23 -60 73 -81 110 -21 38 -36 68 -33 68 2 0 51 9 109 20 58 11 151 37 207 58 63 22 104 43 106 52 1 9 -3 23 -11 33 -12 17 -19 16 -130 -17 -64 -20 -144 -41 -177 -47 -33 -7 -63 -9 -66 -7 -2 3 -11 41 -18 84 -8 43 -11 81 -8 84 4 3 153 23 332 45 156 19 296 36 340 41 z" style="fill: url(&quot;#gradient-2&quot;);"/>
    <path d="M5530 3979c-5 11 -18 22 -28 25 -17 6 -16 9 10 31 27 24 30 24 53 9 14 -9 25 -19 25 -21 0 -3 -11 -18 -25 -34 -23 -28 -25 -29 -35 -10 z" fill="rgb(212, 219, 222)"/>
    <path d="M5994 4125c-4 9 -18 21 -32 26 l-25 10 22 22 c11 13 21 30 21 38 0 10 8 13 32 9 21 -3 39 -14 49 -31 15 -25 15 -27 -23 -58 -32 -27 -39 -30 -44 -16 z" fill="rgb(231, 231, 231)"/>
    <path d="M3801 4150c-38 0 -66 1 -87 2 l13 6 c9 5 30 6 45 3 l29 -11 z" fill="rgb(109, 107, 109)"/>
    <path d="M4831 4155l-313 -2 -304 2 c45 3 165 5 301 5 168 0 310 -2 315 -5 0 0 0 0 1 0 z" fill="rgb(89, 87, 89)"/>
    <path d="M4775 6073l13 10 c7 4 -123 7 -288 7 -165 0 -295 -3 -289 -6 l12 -10 c-18 -2 -29 -5 -38 -9 -19 -8 -49 -25 -66 -37 l-30 -23 -94 -575 -95 -574 27 -28 c27 -28 27 -28 161 -28 l135 0 -6 -37 c-3 -21 -10 -61 -16 -89 -9 -46 -13 -52 -40 -58 -17 -3 -83 -11 -147 -18 -93 -9 -117 -15 -125 -29 -6 -13 -5 -26 3 -41 13 -23 15 -23 128 -15 64 4 123 5 132 2 14 -5 13 -19 -10 -128 -15 -74 -31 -127 -40 -134 -10 -8 -49 -13 -107 -13 -51 0 -133 3 -182 6 -76 6 -90 9 -86 23 2 9 69 411 148 895 141 863 144 879 172 908 15 16 53 40 84 54 56 24 60 24 371 24 l314 0 50 -25 c28 -14 61 -37 75 -51 22 -23 34 -84 136 -682 62 -361 109 -659 105 -662 -4 -3 -206 -27 -450 -54 -243 -27 -444 -47 -446 -45 -2 2 4 40 13 84 l17 80 358 5 358 5 28 31 28 32 -13 78 c-7 44 -50 300 -96 569 -81 479 -84 491 -112 517 -16 15 -44 32 -63 38 -4 1 -14 2 -29 3 z" fill="rgb(231, 231, 231)"/>
    <path d="M4240 4395c-2 -17 -3 -33 -4 -47 l-5 -88 194 0 c133 0 190 -3 180 -10 l-15 -10 c-218 1 -380 3 -382 5 -3 3 2 38 11 78 l21 72 z" fill="rgb(200, 199, 198)"/>
    <path d="M4240 4395c3 36 9 71 13 90 l13 50 430 45 c236 25 448 48 471 51 l41 7 31 -172 c17 -94 34 -183 37 -198 l6 -28 -535 0 c-54 0 -107 0 -157 0 l15 10 c10 7 -47 10 -180 10 l-194 0 5 88 c1 14 2 30 4 47 z" fill="rgb(231, 231, 231)"/>
    <path d="M6020 4486c6 1 11 1 13 2 5 0 13 1 21 2 l28 -30 27 -25 -23 -20 c-13 -12 -25 -27 -27 -34 -3 -9 -16 -4 -41 18 -35 30 -36 32 -17 44 10 6 19 19 19 27 l0 16 z" fill="rgb(231, 231, 231)"/>
    <path d="M3082 4463l-44 47 45 46 c42 43 45 44 60 27 9 -10 28 -28 42 -40 14 -11 25 -28 25 -36 0 -8 -7 -18 -15 -21 -8 -3 -27 -21 -42 -38 l-28 -33 -43 48 z" fill="rgb(2, 2, 2)"/>
    <path d="M5262 4842c-36 197 -62 361 -60 363 3 3 184 30 403 60 219 30 399 54 401 53 1 -2 28 -167 59 -366 31 -200 55 -366 53 -368 -2 -2 -181 -25 -398 -52 l-394 -49 -64 359 z" fill="rgb(231, 231, 231)"/>
    <path d="M4150 4525c0 3 2 5 5 5 3 0 5 -2 5 -5 0 -3 -2 -5 -5 -5 -3 0 -5 2 -5 5 z" fill="rgb(125, 125, 125)"/>
    <path d="M6970 4628c-22 18 -23 22 -12 47 9 18 18 25 33 23 12 -2 29 -14 38 -28 15 -24 15 -26 -10 -43 -25 -18 -26 -18 -49 1 z" fill="rgb(2, 2, 2)"/>
    <path d="M5509 4655c-36 18 -62 41 -90 80 -29 42 -40 68 -45 111 -4 31 -2 77 4 102 6 26 24 66 40 89 17 23 54 59 82 80 37 27 68 41 110 48 39 6 75 6 111 -1 29 -6 72 -25 97 -43 24 -17 57 -52 73 -78 18 -28 32 -67 35 -99 4 -29 2 -72 -4 -96 -6 -24 -27 -67 -46 -96 -27 -42 -49 -60 -101 -87 -58 -31 -75 -35 -141 -35 -59 0 -85 5 -125 25 z" fill="rgb(2, 2, 2)"/>
    <path d="M5677 5082l12 -17 11 -9 c-5 -8 -12 -16 -19 -23 l-21 -23 25 -6 c13 -3 27 -15 30 -25 4 -10 13 -19 21 -19 8 0 19 11 24 25 5 14 14 25 19 25 l10 0 15 0 c9 0 19 -15 25 -37 6 -21 11 -52 11 -69 0 -17 -12 -55 -27 -85 -21 -41 -39 -61 -75 -81 -40 -23 -58 -28 -106 -25 -39 2 -72 11 -97 26 -26 15 -47 39 -64 73 -22 45 -24 55 -14 101 7 32 22 65 43 90 18 22 50 48 72 58 21 11 61 20 90 20 l15 1 z" style="fill: url(&quot;#gradient-0&quot;);"/>
    <path d="M5572 4772c-7 7 -12 22 -12 35 0 13 9 27 21 34 16 8 28 8 45 0 15 -7 24 -19 24 -34 0 -13 -5 -28 -12 -35 -7 -7 -21 -12 -33 -12 -12 0 -26 5 -33 12 z" fill="rgb(231, 231, 231)"/>
    <path d="M4017 5040l29 160 128 86 c92 62 126 90 124 102 -2 9 -14 24 -25 32 -19 14 -27 11 -112 -47 -90 -60 -91 -61 -91 -35 0 15 22 159 49 320 36 216 53 298 66 312 16 18 32 20 152 20 73 0 133 -3 132 -7 0 -5 -51 -253 -112 -553 l-112 -545 -128 -3 -128 -3 28 161 z" style="fill: url(&quot;#gradient-4&quot;);"/>
    <path d="M4418 5295l25 -14 c14 -7 34 -10 45 -7 11 4 25 20 32 37 11 27 10 32 -10 54 -13 14 -32 25 -43 26 l-19 1 -4 8 c-3 5 21 140 53 299 l57 291 123 0 c86 0 124 -4 130 -12 4 -7 49 -254 99 -548 51 -294 90 -536 88 -537 -2 -2 -94 -5 -209 -7 l-87 4 c-39 0 -107 -2 -168 -4 -15 -1 -30 -2 -44 -2 -68 -4 -130 -4 -138 -1 -12 4 -7 39 28 208 l42 204 z" style="fill: url(&quot;#gradient-3&quot;);"/>
    <path d="M4785 4886c-8 -1 -17 -1 -25 -1 l-230 1 c61 2 129 4 168 4 l87 -4 z" fill="rgb(56, 78, 72)"/>
    <path d="M3435 4900c-8 6 -15 22 -15 36 0 16 8 28 25 36 21 9 28 8 45 -7 11 -10 20 -24 20 -32 0 -8 -14 -20 -30 -28 -22 -11 -34 -12 -45 -5 z" fill="rgb(2, 2, 2)"/>
    <path d="M4734 4945c-19 27 -19 28 5 46 20 17 27 18 45 7 13 -8 21 -23 20 -38 -1 -17 -9 -28 -26 -34 -21 -7 -28 -5 -44 19 z" fill="rgb(231, 231, 231)"/>
    <path d="M5700 5056c4 5 7 10 8 13 l6 14 8 -2 c4 0 24 -12 44 -26 19 -14 32 -30 29 -35 l-6 -10 -10 0 c-5 0 -14 -11 -19 -25 -5 -14 -16 -25 -24 -25 -8 0 -17 9 -21 19 -3 10 -17 22 -30 25 l-25 6 21 23 c7 7 14 15 19 23 z" fill="rgb(231, 231, 231)"/>
    <path d="M4080 4995c-7 8 -10 25 -6 39 3 14 15 27 26 31 10 3 28 1 40 -5 11 -6 20 -21 20 -33 0 -13 -5 -28 -12 -35 -7 -7 -22 -12 -34 -12 -12 0 -27 7 -34 15 z" fill="rgb(231, 231, 231)"/>
    <path d="M4606 5039c-10 11 -16 31 -14 48 2 18 12 33 29 42 24 13 30 13 53 -2 18 -12 26 -26 26 -47 0 -15 -7 -36 -16 -44 -8 -9 -26 -16 -38 -16 -13 0 -31 9 -40 19 z" fill="rgb(231, 231, 231)"/>
    <path d="M5677 5082l37 1 -6 -14 c-1 -3 -4 -8 -8 -13 l-11 9 -12 17 z" fill="rgb(98, 144, 135)"/>
    <path d="M6590 5094c-30 15 -63 43 -84 71 -19 25 -40 62 -46 83 -5 20 -10 61 -10 90 0 44 -5 60 -29 90 -17 20 -33 49 -36 64 -5 19 -1 32 14 47 13 13 34 21 55 21 19 0 47 -5 62 -10 21 -8 43 -6 100 11 53 16 85 20 119 15 25 -4 67 -21 95 -37 28 -16 63 -50 81 -76 21 -30 37 -69 44 -108 9 -48 20 -72 60 -121 45 -56 49 -65 40 -90 -9 -24 -17 -30 -50 -32 -21 -2 -58 1 -82 7 -40 10 -47 9 -93 -19 -43 -26 -60 -30 -120 -30 -54 0 -81 6 -120 24 z" fill="rgb(2, 2, 2)"/>
    <path d="M6618 5149c-20 10 -50 37 -68 60 -18 25 -33 61 -37 86 -3 28 1 60 12 95 9 28 24 54 32 57 9 3 44 -8 79 -25 35 -18 107 -61 160 -97 l96 -64 -19 -33 c-10 -18 -38 -48 -61 -65 -36 -29 -49 -33 -100 -33 -36 0 -71 7 -94 19 z" fill="rgb(231, 231, 231)"/>
    <path d="M6940 5192c-8 4 -11 10 -8 13 4 4 12 4 18 0 6 -4 10 -10 8 -13 -2 -4 -10 -4 -18 0 z" fill="rgb(173, 173, 179)"/>
    <path d="M3389 5302c-34 72 -35 73 -96 97 -35 14 -63 30 -63 36 0 7 27 21 61 32 60 20 62 21 96 89 19 38 38 73 42 77 5 5 18 -18 29 -51 11 -33 29 -69 40 -80 11 -11 46 -29 78 -41 42 -15 55 -23 46 -31 -7 -5 -35 -19 -62 -29 -29 -11 -60 -32 -74 -50 -13 -17 -27 -49 -31 -72 -4 -22 -13 -43 -19 -45 -8 -3 -26 23 -47 68 z" fill="rgb(2, 2, 2)"/>
    <path d="M4732 5266c-14 10 -22 26 -22 44 0 19 9 35 27 49 18 15 32 19 47 14 12 -5 28 -16 38 -25 10 -11 14 -27 11 -40 -3 -13 -13 -31 -21 -40 -8 -10 -25 -18 -36 -18 -12 0 -32 7 -44 16 z" fill="rgb(231, 231, 231)"/>
    <path d="M4418 5295l1 30 c1 17 7 39 15 49 l14 18 19 -1 c11 -1 30 -12 43 -26 20 -22 21 -27 10 -54 -7 -17 -21 -33 -32 -37 -11 -3 -31 0 -45 7 l-25 14 z" fill="rgb(231, 231, 231)"/>
    <path d="M5138 5565c-26 149 -47 280 -47 291 -1 15 7 24 24 28 14 3 171 26 350 51 284 39 332 44 381 34 42 -8 57 -16 64 -32 4 -12 26 -136 48 -275 33 -209 37 -254 26 -258 -8 -2 -191 -28 -406 -56 l-393 -53 -47 270 z" style="fill: url(&quot;#gradient-1&quot;);"/>
    <path d="M3384 5397l-40 42 24 13 c13 6 31 25 40 40 l16 28 28 -35 c16 -18 37 -36 48 -39 18 -5 14 -11 -28 -48 l-48 -43 -40 42 z" fill="rgb(231, 231, 231)"/>
    <path d="M6848 5368c-13 9 -68 43 -122 74 -67 39 -94 59 -83 63 10 3 26 7 38 9 11 3 45 -2 75 -10 34 -9 63 -24 78 -41 14 -16 32 -46 42 -68 11 -26 12 -40 5 -42 -6 -2 -21 5 -33 15 z" fill="rgb(231, 231, 231)"/>
    <path d="M5470 5431c-23 26 -23 27 -7 53 11 16 27 26 41 26 12 0 31 -9 40 -19 10 -11 16 -28 14 -38 -1 -10 -17 -25 -34 -33 -30 -14 -32 -14 -54 11 z" fill="rgb(231, 231, 231)"/>
    <path d="M6465 5480c-3 6 1 10 9 10 9 0 16 -4 16 -10 0 -13 -17 -13 -25 0 z" fill="rgb(200, 199, 198)"/>
    <path d="M5212 5549c-26 19 -45 44 -57 75 -15 40 -16 52 -5 91 8 29 26 57 50 79 24 22 53 36 80 41 33 6 51 2 88 -17 29 -14 55 -37 69 -62 15 -25 23 -54 23 -85 0 -28 -8 -58 -20 -78 -10 -18 -37 -41 -59 -53 -23 -11 -60 -20 -85 -20 -34 0 -55 7 -84 29 z" fill="rgb(2, 2, 2)"/>
    <path d="M5762 5556c-6 12 -23 25 -37 28 -14 4 -25 11 -25 17 0 6 14 24 31 40 17 16 33 29 35 29 2 0 13 -9 23 -19 11 -11 27 -21 38 -23 16 -3 16 -5 -6 -26 -14 -13 -30 -33 -36 -45 l-11 -22 -12 21 z" fill="rgb(231, 231, 231)"/>
    <path d="M5238 5610c-27 28 -30 36 -25 73 4 28 14 49 32 64 14 13 37 23 50 23 13 0 35 -4 49 -10 14 -5 32 -23 41 -40 10 -20 14 -42 10 -60 -4 -16 -20 -41 -37 -55 -17 -14 -42 -25 -60 -25 -20 0 -40 10 -60 30 z" fill="rgb(231, 231, 231)"/>
    <path d="M4199 5637c-12 16 -17 34 -13 47 3 12 13 27 22 34 9 6 27 12 41 12 13 0 33 -7 43 -17 10 -9 18 -27 18 -41 0 -14 -7 -34 -17 -44 -9 -10 -29 -18 -46 -18 -20 0 -35 8 -48 27 z" fill="rgb(231, 231, 231)"/>
    <path d="M4615 5665c-14 9 -32 29 -41 46 -10 21 -14 43 -9 65 3 18 17 47 31 64 22 26 33 30 73 30 41 0 51 -5 77 -32 24 -28 29 -41 29 -83 -1 -43 -5 -53 -30 -74 -16 -13 -46 -25 -67 -27 -23 -2 -48 2 -63 11 z" fill="rgb(2, 2, 2)"/>
    <path d="M7121 5694c-42 45 -44 49 -26 60 11 6 32 27 47 46 l27 35 46 -50 c45 -49 45 -50 25 -65 -12 -8 -33 -28 -48 -45 l-27 -30 -44 49 z" fill="rgb(2, 2, 2)"/>
    <path d="M2974 5696l-19 29 24 18 c20 15 27 16 45 5 12 -8 21 -23 21 -38 0 -18 -7 -28 -26 -34 -22 -8 -28 -5 -45 20 z" fill="rgb(2, 2, 2)"/>
    <path d="M5659 5723c-34 28 -39 38 -39 73 0 32 7 49 29 73 23 25 37 31 69 31 29 0 49 -7 71 -26 27 -22 31 -32 31 -74 0 -41 -5 -53 -31 -79 -21 -21 -40 -31 -61 -31 -20 0 -44 11 -69 33 z" fill="rgb(2, 2, 2)"/>
    <path d="M4643 5730c-7 7 -13 24 -13 37 0 15 9 27 25 35 19 8 28 8 40 -2 9 -8 15 -25 13 -39 -2 -17 -12 -30 -28 -36 -19 -8 -28 -7 -37 5 z" fill="rgb(231, 231, 231)"/>
    <path d="M5688 5779c-9 15 -9 23 2 36 7 9 22 15 33 13 11 -2 25 -10 30 -19 6 -9 7 -24 4 -33 -4 -9 -17 -16 -32 -16 -14 0 -30 9 -37 19 z" fill="rgb(231, 231, 231)"/>
    <path d="M4775 6073c-50 4 -157 7 -280 7 -154 0 -230 -1 -272 -6 l-12 10 c-6 3 124 6 289 6 165 0 295 -3 288 -7 l-13 -10 z" fill="rgb(245, 245, 245)"/>
    <path d="M5135 6146c-16 0 -34 0 -53 1 -71 5 -93 3 -88 -5 3 -5 4 -9 3 -11 0 -1 -1 -1 -1 -1 -3 0 -6 1 -6 3 0 2 -5 8 -12 15 -9 9 14 12 105 12 72 0 113 -3 105 -9 -4 -3 -25 -5 -53 -5 z" fill="rgb(147, 145, 147)"/>
    <path d="M5135 6146l-66 -9 -72 -6 c1 2 0 6 -3 11 -5 8 17 10 88 5 19 -1 37 -1 53 -1 z" fill="rgb(231, 231, 231)"/>
    <path d="M3369 6189c-20 6 -30 14 -27 22 3 8 21 18 41 23 22 6 55 6 84 0 32 -6 48 -14 48 -24 0 -11 -16 -17 -57 -22 -32 -5 -72 -4 -89 1 z" fill="rgb(2, 2, 2)"/>
    <path d="M6770 6189c-16 5 -30 14 -30 20 0 6 11 16 25 21 14 6 50 8 80 7 31 -2 61 -9 68 -16 9 -9 9 -14 -3 -21 -8 -5 -36 -11 -62 -14 -26 -3 -61 -2 -78 3 z" fill="rgb(2, 2, 2)"/>
    <path d="M4746 6582c13 -2 33 -4 52 -4 l47 -3 0 0 -50 0 -49 7 z" fill="rgb(89, 87, 89)"/>
    <path d="M3045 6905l0 200 68 3 c37 1 85 -3 106 -8 24 -6 51 -24 70 -45 22 -26 34 -53 42 -99 11 -56 10 -71 -7 -122 -14 -42 -29 -67 -54 -88 -32 -25 -46 -29 -130 -35 l-95 -6 0 200 z" style="fill: rgba(231, 231, 231, 0);"/>
    <path d="M2907 6733c-1 54 -1 121 -2 192 l0 300 1 -250 1 -242 z" fill="rgb(163, 163, 163)"/>
  </g>
</svg>